# xmcd CD database file
#
# Track frame offsets:
#	150
#	28570
#	40280
#	57955
#	72842
#	93502
#	122720
#	143355
#	160357
#	195840
#	217417
#	224670
#	235427
#	251997
#
# Disc length: 3588 seconds
#
# Revision: 1
# Processed by: cddbd v1.5.1PL2 Copyright (c) Steve Scherf et al.
# Submitted via: CDex 1.51
#
DISCID=d60e020e
DTITLE=Triologia del Cosmos - La Nueva dimension
DYEAR=1994
DGENRE=New Age
TTITLE0=Departure 
TTITLE1=Arriving-Chick Hatching
TTITLE2=Night On The Beach
TTITLE3=King Olav's Death
TTITLE4=Break Your Chains!
TTITLE5=Down The River
TTITLE6=Blue Veils
TTITLE7=Arctic Reindeer
TTITLE8=Openfield
TTITLE9=Green Lady
TTITLE10=The Hidden History Of Music Angles
TTITLE11=Against The Wind
TTITLE12=Climbing
TTITLE13=Setting Sail
EXTD=YEAR: 1994
EXTT0=
EXTT1=
EXTT2=
EXTT3=
EXTT4=
EXTT5=
EXTT6=
EXTT7=
EXTT8=
EXTT9=
EXTT10=
EXTT11=
EXTT12=
EXTT13=
PLAYORDER=
